<svg width="10" height="17" viewBox="0 0 10 17" fill="none" xmlns="http://www.w3.org/2000/svg">
<path d="M7.60419 16.0833L0.583353 9.08332C0.50002 8.99999 0.441131 8.90971 0.406687 8.81249C0.371687 8.71527 0.354187 8.6111 0.354187 8.49999C0.354187 8.38888 0.371687 8.28471 0.406687 8.18749C0.441131 8.09027 0.50002 7.99999 0.583353 7.91666L7.60419 0.895823C7.79863 0.701379 8.04169 0.604156 8.33335 0.604156C8.62502 0.604156 8.87502 0.708323 9.08335 0.916656C9.29169 1.12499 9.39585 1.36805 9.39585 1.64582C9.39585 1.9236 9.29169 2.16666 9.08335 2.37499L2.95835 8.49999L9.08335 14.625C9.2778 14.8194 9.37502 15.0589 9.37502 15.3433C9.37502 15.6283 9.27085 15.875 9.06252 16.0833C8.85419 16.2917 8.61113 16.3958 8.33335 16.3958C8.05558 16.3958 7.81252 16.2917 7.60419 16.0833Z" fill="#6251DD"/>
</svg>
